<?xml version="1.0" standalone="no"?>
<!DOCTYPE svg PUBLIC "-//W3C//DTD SVG 20010904//EN"
 "http://www.w3.org/TR/2001/REC-SVG-20010904/DTD/svg10.dtd">
<svg version="1.0" xmlns="http://www.w3.org/2000/svg"
 width="159.000000pt" height="159.000000pt" viewBox="0 0 159.000000 159.000000"
 preserveAspectRatio="xMidYMid meet">
<metadata>
Created by potrace 1.14, written by Peter Selinger 2001-2017
</metadata>
<g transform="translate(0.000000,159.000000) scale(0.100000,-0.100000)"
fill="#000000" stroke="none">
<path d="M422 1581 c-5 -3 -8 -26 -8 -51 1 -37 4 -45 21 -46 11 0 32 -1 47 -2
41 -3 97 -57 111 -109 l11 -43 57 2 56 2 -4 51 c-7 84 -60 156 -139 185 -32
13 -139 20 -152 11z"/>
<path d="M783 1575 c-38 -16 -50 -37 -56 -93 l-4 -43 76 3 75 3 1 60 c0 33 -1
65 -3 71 -4 15 -51 15 -89 -1z"/>
<path d="M1042 1575 c-89 -27 -148 -101 -154 -195 l-3 -45 57 -3 56 -3 7 33
c14 62 74 120 122 117 10 -1 4 -6 -14 -11 -17 -6 -43 -23 -58 -38 -26 -27 -49
-86 -37 -94 4 -2 42 -4 85 -4 l77 0 0 69 c0 55 -3 69 -15 69 -8 0 -15 5 -15
10 0 6 6 9 13 8 8 -2 12 12 12 47 l0 50 -45 1 c-25 1 -64 -4 -88 -11z"/>
<path d="M429 1473 c-13 -3 -16 -17 -15 -71 l1 -67 82 -1 c94 -2 101 4 72 62
-26 53 -89 88 -140 77z"/>
<path d="M730 1328 l0 -96 53 -4 c91 -6 92 -5 90 55 -1 29 -2 72 -2 97 l-1 45
-70 0 -70 0 0 -97z"/>
<path d="M413 1249 l1 -71 48 4 c65 7 106 43 122 111 l6 27 -89 0 -89 0 1 -71z"/>
<path d="M596 1290 c-7 -38 -40 -86 -69 -102 -12 -7 -42 -15 -67 -18 l-45 -5
-2 -47 c-2 -53 -5 -52 90 -49 63 2 108 21 151 66 36 37 65 108 62 155 -1 23
-5 25 -57 28 -56 3 -56 3 -63 -28z"/>
<path d="M888 1315 c-10 -10 4 -89 22 -124 41 -80 112 -121 210 -121 l60 0 0
49 0 49 -35 0 c-65 0 -121 50 -139 125 -6 25 -10 27 -60 27 -29 0 -55 -2 -58
-5z"/>
<path d="M1023 1284 c10 -59 65 -104 127 -104 l30 0 0 70 0 70 -81 0 -82 0 6
-36z"/>
<path d="M728 1143 l-3 -73 37 0 c74 0 116 42 113 112 l-2 33 -71 0 -71 1 -3
-73z"/>
<path d="M808 1052 c-14 -2 -38 -14 -53 -28 -22 -20 -26 -31 -23 -71 l3 -46
68 -2 c37 -1 67 2 67 7 0 4 4 8 8 8 4 0 7 -66 6 -147 0 -82 3 -160 8 -175 13
-36 49 -58 98 -58 l40 0 0 255 c0 220 -2 255 -15 256 -8 0 -31 1 -50 1 -85 0
-82 1 -80 -37 2 -19 -1 -35 -6 -35 -5 0 -7 14 -5 30 5 40 -10 50 -66 42z m78
-102 c0 -11 -4 -20 -8 -20 -4 0 -8 9 -8 20 0 11 4 20 8 20 4 0 8 -9 8 -20z"/>
<path d="M1050 1050 c-13 -8 -9 -72 6 -102 9 -17 27 -31 49 -37 64 -17 70 -12
73 67 l3 70 -62 4 c-33 1 -65 1 -69 -2z"/>
<path d="M411 980 c0 -38 2 -71 7 -71 4 -1 37 -2 75 -3 l67 -1 0 42 c0 30 -7
50 -26 72 -22 27 -32 31 -74 31 l-48 0 -1 -70z"/>
<path d="M570 750 l0 -211 73 3 72 3 0 203 c0 111 -1 202 -3 202 -1 0 -13 -6
-25 -14 -31 -20 -72 -17 -96 6 l-21 19 0 -211z"/>
<path d="M410 850 c0 -59 41 -102 101 -104 l44 -1 3 73 3 72 -76 0 -75 0 0
-40z"/>
<path d="M732 818 l3 -73 44 2 c60 3 90 32 93 93 l3 45 -73 3 -73 3 3 -73z"/>
<path d="M1043 798 l2 -73 30 0 c43 -1 84 14 95 35 6 10 10 39 10 64 l0 46
-69 0 -69 0 1 -72z"/>
<path d="M481 512 c-37 -20 -71 -73 -71 -110 0 -22 3 -23 72 -20 l72 3 0 70
c0 62 -2 70 -19 73 -11 1 -35 -6 -54 -16z"/>
<path d="M569 406 c-3 -315 -4 -300 34 -342 23 -26 43 -37 73 -41 l40 -5 -1
210 c-1 179 -4 214 -18 236 -22 33 -54 54 -95 62 l-32 7 -1 -127z"/>
<path d="M729 508 c-1 -10 -1 -29 -1 -43 0 -14 0 -83 1 -155 l1 -130 35 0 c39
0 90 -22 98 -42 8 -18 10 81 7 343 l0 46 -70 0 c-60 -1 -70 -3 -71 -19z"/>
<path d="M889 527 c-1 -1 -2 -57 -3 -124 l-1 -122 63 -3 c34 -2 67 -1 72 0 6
2 10 45 10 97 0 83 -3 97 -22 120 -17 19 -35 26 -70 29 -27 2 -49 3 -49 3z"/>
<path d="M1045 516 c-2 -6 -3 -119 -2 -251 l2 -240 47 -3 c37 -2 51 1 68 18
20 20 20 29 18 253 l-3 232 -63 1 c-38 0 -65 -4 -67 -10z"/>
<path d="M410 296 l0 -74 46 3 c71 4 100 43 95 128 -1 14 -11 17 -71 17 l-70
0 0 -74z"/>
<path d="M887 255 c-2 -5 -2 -49 -2 -97 1 -78 4 -91 25 -113 19 -20 33 -25 72
-25 l48 0 0 120 c0 100 -3 120 -15 121 -70 5 -125 2 -128 -6z"/>
<path d="M735 162 c-3 -3 -5 -36 -5 -74 l0 -68 74 0 74 0 -4 47 c-4 61 -34 92
-92 97 -23 2 -44 1 -47 -2z"/>
</g>
</svg>
